<svg xmlns="http://www.w3.org/2000/svg" xmlns:xlink="http://www.w3.org/1999/xlink" width="40" height="40" viewBox="0 0 40 40">
  <defs>
    <circle id="feather-a" cx="20" cy="20" r="20"/>
  </defs>
  <g fill="none" fill-rule="evenodd">
    <mask id="feather-b" fill="#fff">
      <use xlink:href="#feather-a"/>
    </mask>
    <use fill="#262B33" xlink:href="#feather-a"/>
    <g mask="url(#feather-b)">
      <g transform="translate(9 6)">
        <path fill="#E6EBF4" d="M11.8532796,1.39627928 L21.6413052,17.4131347 C21.8539249,17.7610579 21.8339985,18.2032306 21.5909459,18.530619 C19.196982,21.755255 18,25.578382 18,30 C16,30 6,30 4,30 C4,25.5783733 2.80301328,21.7552399 0.409039846,18.5305998 L0.409044394,18.5305965 C0.165981161,18.2031946 0.146053562,17.7610032 0.358682233,17.4130653 L10.146716,1.39627945 C10.4347048,0.925024874 11.0501932,0.776458647 11.5214478,1.06444749 C11.6568137,1.14717108 11.770556,1.2609134 11.8532796,1.39627928 Z"/>
        <path fill="#98A1B3" d="M11,1 L11,1 C11.3107986,1 11.599424,1.16097215 11.7627464,1.425399 L21.6670584,17.4609742 C21.8681142,17.7864931 21.865808,18.1981993 21.6611182,18.5214455 C19.2203727,22.3758705 18,26.5353886 18,31 C16.6666667,31 14.3333333,31 11,31 L11,1 Z"/>
        <rect width="18" height="8" x="2" y="28" fill="#1470CC" rx="1"/>
        <path fill="#1890F2" d="M3,28 L7,28 C9.209139,28 11,29.790861 11,32 L11,35 C11,35.5522847 10.5522847,36 10,36 L3,36 C2.44771525,36 2,35.5522847 2,35 L2,29 C2,28.4477153 2.44771525,28 3,28 Z"/>
        <circle cx="11" cy="16" r="3" fill="#262B33"/>
      </g>
    </g>
    <path fill="#1470CC" d="M12.64,32.5 L27.57,32.5 C27.39,33.1666667 27.3,33.6666667 27.3,34 C26,34 13.9,34 12.8,34 C12.8,33.6666667 12.7466667,33.1666667 12.64,32.5 Z" mask="url(#feather-b)"/>
    <path fill="#093159" d="M20,32.5 L27.57,32.5 C27.39,33.1666667 27.3,33.6666667 27.3,34 C26.4333333,34 24,34 20,34 L20,32.5 Z" mask="url(#feather-b)"/>
    <path fill="#FFF" d="M13.9282843,28.1890093 C14.7567114,28.1890093 14.5180979,26.8927933 14.4770044,25.3660889 C14.435911,23.8393844 14.4429157,22.0625052 13.6144886,22.0625052 C12.7860615,22.0625052 11.7466387,23.6900736 11.9512388,25.2579189 C12.1558389,26.8257642 13.0998572,28.1890093 13.9282843,28.1890093 Z" mask="url(#feather-b)" transform="rotate(-11 13.233 25.126)"/>
  </g>
</svg>
